<mxfile host="65bd71144e">
    <diagram id="UzBej7h8yrmq38pXgioy" name="Página-1">
        <mxGraphModel dx="871" dy="483" grid="1" gridSize="10" guides="1" tooltips="1" connect="1" arrows="1" fold="1" page="1" pageScale="1" pageWidth="850" pageHeight="1100" math="0" shadow="0">
            <root>
                <mxCell id="0"/>
                <mxCell id="1" parent="0"/>
                <mxCell id="2" value="Zoo" style="html=1;" vertex="1" parent="1">
                    <mxGeometry x="360" y="760" width="120" height="50" as="geometry"/>
                </mxCell>
                <mxCell id="3" value="" style="endArrow=diamondThin;endFill=1;endSize=24;html=1;entryX=0.838;entryY=-0.041;entryDx=0;entryDy=0;entryPerimeter=0;exitX=0.545;exitY=1;exitDx=0;exitDy=0;exitPerimeter=0;" edge="1" parent="1" source="7" target="2">
                    <mxGeometry width="160" relative="1" as="geometry">
                        <mxPoint x="520" y="680" as="sourcePoint"/>
                        <mxPoint x="500" y="640" as="targetPoint"/>
                        <Array as="points">
                            <mxPoint x="580" y="720"/>
                            <mxPoint x="460" y="720"/>
                        </Array>
                    </mxGeometry>
                </mxCell>
                <mxCell id="4" value="" style="endArrow=diamondThin;endFill=1;endSize=24;html=1;entryX=0.5;entryY=0;entryDx=0;entryDy=0;" edge="1" parent="1" target="2">
                    <mxGeometry width="160" relative="1" as="geometry">
                        <mxPoint x="420" y="560" as="sourcePoint"/>
                        <mxPoint x="520" y="690" as="targetPoint"/>
                    </mxGeometry>
                </mxCell>
                <mxCell id="5" value="" style="endArrow=diamondThin;endFill=1;endSize=24;html=1;entryX=0.838;entryY=-0.041;entryDx=0;entryDy=0;entryPerimeter=0;" edge="1" parent="1">
                    <mxGeometry width="160" relative="1" as="geometry">
                        <mxPoint x="320" y="680" as="sourcePoint"/>
                        <mxPoint x="380.56000000000006" y="759.9999999999999" as="targetPoint"/>
                        <Array as="points">
                            <mxPoint x="320" y="720"/>
                            <mxPoint x="380" y="722.05"/>
                        </Array>
                    </mxGeometry>
                </mxCell>
                <mxCell id="6" value="Cuidador" style="html=1;" vertex="1" parent="1">
                    <mxGeometry x="260" y="630" width="110" height="50" as="geometry"/>
                </mxCell>
                <mxCell id="7" value="Stock" style="html=1;" vertex="1" parent="1">
                    <mxGeometry x="520" y="630" width="110" height="50" as="geometry"/>
                </mxCell>
                <mxCell id="8" value="Animal" style="html=1;" vertex="1" parent="1">
                    <mxGeometry x="350" y="510" width="110" height="50" as="geometry"/>
                </mxCell>
                <mxCell id="9" value="" style="endArrow=diamondThin;endFill=0;endSize=24;html=1;entryX=0.644;entryY=-0.017;entryDx=0;entryDy=0;entryPerimeter=0;exitX=0.353;exitY=1.069;exitDx=0;exitDy=0;exitPerimeter=0;" edge="1" parent="1" source="8" target="6">
                    <mxGeometry width="160" relative="1" as="geometry">
                        <mxPoint x="380" y="660" as="sourcePoint"/>
                        <mxPoint x="540" y="660" as="targetPoint"/>
                        <Array as="points">
                            <mxPoint x="389" y="590"/>
                            <mxPoint x="330" y="590"/>
                        </Array>
                    </mxGeometry>
                </mxCell>
                <mxCell id="10" value="" style="endArrow=diamondThin;endFill=1;endSize=24;html=1;entryX=0.287;entryY=0.026;entryDx=0;entryDy=0;entryPerimeter=0;" edge="1" parent="1" target="6">
                    <mxGeometry width="160" relative="1" as="geometry">
                        <mxPoint x="292" y="560" as="sourcePoint"/>
                        <mxPoint x="490" y="650" as="targetPoint"/>
                    </mxGeometry>
                </mxCell>
                <mxCell id="11" value="Vacaciones" style="html=1;" vertex="1" parent="1">
                    <mxGeometry x="210" y="510" width="110" height="50" as="geometry"/>
                </mxCell>
                <mxCell id="12" value="Cuidador" style="html=1;" vertex="1" parent="1">
                    <mxGeometry x="520" y="510" width="110" height="50" as="geometry"/>
                </mxCell>
                <mxCell id="13" value="" style="endArrow=diamondThin;endFill=0;endSize=24;html=1;entryX=0.536;entryY=-0.02;entryDx=0;entryDy=0;exitX=0.536;exitY=0.985;exitDx=0;exitDy=0;entryPerimeter=0;exitPerimeter=0;" edge="1" parent="1" source="12" target="7">
                    <mxGeometry width="160" relative="1" as="geometry">
                        <mxPoint x="460" y="650" as="sourcePoint"/>
                        <mxPoint x="620" y="650" as="targetPoint"/>
                    </mxGeometry>
                </mxCell>
                <mxCell id="14" value="Dieta&#10;&lt;&lt;enumeración&gt;&gt;" style="swimlane;fontStyle=0;childLayout=stackLayout;horizontal=1;startSize=26;fillColor=none;horizontalStack=0;resizeParent=1;resizeParentMax=0;resizeLast=0;collapsible=1;marginBottom=0;" vertex="1" parent="1">
                    <mxGeometry x="400" y="270" width="140" height="104" as="geometry"/>
                </mxCell>
                <mxCell id="15" value="Herbivoro" style="text;strokeColor=none;fillColor=none;align=left;verticalAlign=top;spacingLeft=4;spacingRight=4;overflow=hidden;rotatable=0;points=[[0,0.5],[1,0.5]];portConstraint=eastwest;" vertex="1" parent="14">
                    <mxGeometry y="26" width="140" height="26" as="geometry"/>
                </mxCell>
                <mxCell id="16" value="Carnivoro" style="text;strokeColor=none;fillColor=none;align=left;verticalAlign=top;spacingLeft=4;spacingRight=4;overflow=hidden;rotatable=0;points=[[0,0.5],[1,0.5]];portConstraint=eastwest;" vertex="1" parent="14">
                    <mxGeometry y="52" width="140" height="26" as="geometry"/>
                </mxCell>
                <mxCell id="17" value="Insectivoro" style="text;strokeColor=none;fillColor=none;align=left;verticalAlign=top;spacingLeft=4;spacingRight=4;overflow=hidden;rotatable=0;points=[[0,0.5],[1,0.5]];portConstraint=eastwest;" vertex="1" parent="14">
                    <mxGeometry y="78" width="140" height="26" as="geometry"/>
                </mxCell>
                <mxCell id="19" value="" style="endArrow=diamondThin;endFill=0;endSize=24;html=1;exitX=0.366;exitY=1.091;exitDx=0;exitDy=0;exitPerimeter=0;entryX=0.627;entryY=0.001;entryDx=0;entryDy=0;entryPerimeter=0;" edge="1" parent="1" source="17" target="8">
                    <mxGeometry width="160" relative="1" as="geometry">
                        <mxPoint x="500" y="500" as="sourcePoint"/>
                        <mxPoint x="660" y="500" as="targetPoint"/>
                        <Array as="points">
                            <mxPoint x="450" y="440"/>
                            <mxPoint x="420" y="440"/>
                        </Array>
                    </mxGeometry>
                </mxCell>
                <mxCell id="20" value="" style="endArrow=diamondThin;endFill=0;endSize=24;html=1;exitX=0.366;exitY=1.091;exitDx=0;exitDy=0;exitPerimeter=0;" edge="1" parent="1">
                    <mxGeometry width="160" relative="1" as="geometry">
                        <mxPoint x="486.14" y="373.99599999999987" as="sourcePoint"/>
                        <mxPoint x="580" y="510" as="targetPoint"/>
                        <Array as="points">
                            <mxPoint x="484.9" y="437.63"/>
                            <mxPoint x="580" y="438"/>
                        </Array>
                    </mxGeometry>
                </mxCell>
                <mxCell id="22" value="&lt;span style=&quot;color: rgb(240, 240, 240); font-family: Helvetica; font-size: 11px; font-style: normal; font-variant-ligatures: normal; font-variant-caps: normal; font-weight: 400; letter-spacing: normal; orphans: 2; text-align: left; text-indent: 0px; text-transform: none; widows: 2; word-spacing: 0px; -webkit-text-stroke-width: 0px; background-color: rgb(24, 20, 29); text-decoration-thickness: initial; text-decoration-style: initial; text-decoration-color: initial; float: none; display: inline !important;&quot;&gt;1..n&lt;/span&gt;" style="text;whiteSpace=wrap;html=1;" vertex="1" parent="1">
                    <mxGeometry x="390" y="450" width="30" height="20" as="geometry"/>
                </mxCell>
                <mxCell id="24" value="&lt;span style=&quot;color: rgb(240, 240, 240); font-family: Helvetica; font-size: 11px; font-style: normal; font-variant-ligatures: normal; font-variant-caps: normal; font-weight: 400; letter-spacing: normal; orphans: 2; text-align: left; text-indent: 0px; text-transform: none; widows: 2; word-spacing: 0px; -webkit-text-stroke-width: 0px; background-color: rgb(24, 20, 29); text-decoration-thickness: initial; text-decoration-style: initial; text-decoration-color: initial; float: none; display: inline !important;&quot;&gt;1..n&lt;/span&gt;" style="text;whiteSpace=wrap;html=1;" vertex="1" parent="1">
                    <mxGeometry x="540" y="450" width="30" height="20" as="geometry"/>
                </mxCell>
                <mxCell id="25" value="&lt;span style=&quot;color: rgb(240, 240, 240); font-family: Helvetica; font-size: 11px; font-style: normal; font-variant-ligatures: normal; font-variant-caps: normal; font-weight: 400; letter-spacing: normal; orphans: 2; text-align: left; text-indent: 0px; text-transform: none; widows: 2; word-spacing: 0px; -webkit-text-stroke-width: 0px; background-color: rgb(24, 20, 29); text-decoration-thickness: initial; text-decoration-style: initial; text-decoration-color: initial; float: none; display: inline !important;&quot;&gt;1&lt;/span&gt;" style="text;whiteSpace=wrap;html=1;" vertex="1" parent="1">
                    <mxGeometry x="590" y="560" width="30" height="20" as="geometry"/>
                </mxCell>
                <mxCell id="26" value="&lt;span style=&quot;color: rgb(240, 240, 240); font-family: Helvetica; font-size: 11px; font-style: normal; font-variant-ligatures: normal; font-variant-caps: normal; font-weight: 400; letter-spacing: normal; orphans: 2; text-align: left; text-indent: 0px; text-transform: none; widows: 2; word-spacing: 0px; -webkit-text-stroke-width: 0px; background-color: rgb(24, 20, 29); text-decoration-thickness: initial; text-decoration-style: initial; text-decoration-color: initial; float: none; display: inline !important;&quot;&gt;0..n&lt;/span&gt;" style="text;whiteSpace=wrap;html=1;" vertex="1" parent="1">
                    <mxGeometry x="590" y="600" width="30" height="20" as="geometry"/>
                </mxCell>
                <mxCell id="27" value="&lt;span style=&quot;color: rgb(240, 240, 240); font-family: Helvetica; font-size: 11px; font-style: normal; font-variant-ligatures: normal; font-variant-caps: normal; font-weight: 400; letter-spacing: normal; orphans: 2; text-align: left; text-indent: 0px; text-transform: none; widows: 2; word-spacing: 0px; -webkit-text-stroke-width: 0px; background-color: rgb(24, 20, 29); text-decoration-thickness: initial; text-decoration-style: initial; text-decoration-color: initial; float: none; display: inline !important;&quot;&gt;1&lt;/span&gt;" style="text;whiteSpace=wrap;html=1;" vertex="1" parent="1">
                    <mxGeometry x="425" y="560" width="30" height="20" as="geometry"/>
                </mxCell>
                <mxCell id="28" value="&lt;span style=&quot;color: rgb(240, 240, 240); font-family: Helvetica; font-size: 11px; font-style: normal; font-variant-ligatures: normal; font-variant-caps: normal; font-weight: 400; letter-spacing: normal; orphans: 2; text-align: left; text-indent: 0px; text-transform: none; widows: 2; word-spacing: 0px; -webkit-text-stroke-width: 0px; background-color: rgb(24, 20, 29); text-decoration-thickness: initial; text-decoration-style: initial; text-decoration-color: initial; float: none; display: inline !important;&quot;&gt;1..n&lt;/span&gt;" style="text;whiteSpace=wrap;html=1;" vertex="1" parent="1">
                    <mxGeometry x="350" y="560" width="30" height="20" as="geometry"/>
                </mxCell>
                <mxCell id="29" value="&lt;span style=&quot;color: rgb(240, 240, 240); font-family: Helvetica; font-size: 11px; font-style: normal; font-variant-ligatures: normal; font-variant-caps: normal; font-weight: 400; letter-spacing: normal; orphans: 2; text-align: left; text-indent: 0px; text-transform: none; widows: 2; word-spacing: 0px; -webkit-text-stroke-width: 0px; background-color: rgb(24, 20, 29); text-decoration-thickness: initial; text-decoration-style: initial; text-decoration-color: initial; float: none; display: inline !important;&quot;&gt;1&lt;/span&gt;" style="text;whiteSpace=wrap;html=1;" vertex="1" parent="1">
                    <mxGeometry x="270" y="560" width="30" height="20" as="geometry"/>
                </mxCell>
                <mxCell id="30" value="&lt;span style=&quot;color: rgb(240, 240, 240); font-family: Helvetica; font-size: 11px; font-style: normal; font-variant-ligatures: normal; font-variant-caps: normal; font-weight: 400; letter-spacing: normal; orphans: 2; text-align: left; text-indent: 0px; text-transform: none; widows: 2; word-spacing: 0px; -webkit-text-stroke-width: 0px; background-color: rgb(24, 20, 29); text-decoration-thickness: initial; text-decoration-style: initial; text-decoration-color: initial; float: none; display: inline !important;&quot;&gt;0..n&lt;/span&gt;" style="text;whiteSpace=wrap;html=1;" vertex="1" parent="1">
                    <mxGeometry x="250" y="600" width="30" height="20" as="geometry"/>
                </mxCell>
                <mxCell id="31" value="&lt;span style=&quot;color: rgb(240, 240, 240); font-family: Helvetica; font-size: 11px; font-style: normal; font-variant-ligatures: normal; font-variant-caps: normal; font-weight: 400; letter-spacing: normal; orphans: 2; text-align: left; text-indent: 0px; text-transform: none; widows: 2; word-spacing: 0px; -webkit-text-stroke-width: 0px; background-color: rgb(24, 20, 29); text-decoration-thickness: initial; text-decoration-style: initial; text-decoration-color: initial; float: none; display: inline !important;&quot;&gt;0..n&lt;/span&gt;" style="text;whiteSpace=wrap;html=1;" vertex="1" parent="1">
                    <mxGeometry x="350" y="600" width="30" height="20" as="geometry"/>
                </mxCell>
                <mxCell id="32" value="&lt;span style=&quot;color: rgb(240, 240, 240); font-family: Helvetica; font-size: 11px; font-style: normal; font-variant-ligatures: normal; font-variant-caps: normal; font-weight: 400; letter-spacing: normal; orphans: 2; text-align: left; text-indent: 0px; text-transform: none; widows: 2; word-spacing: 0px; -webkit-text-stroke-width: 0px; background-color: rgb(24, 20, 29); text-decoration-thickness: initial; text-decoration-style: initial; text-decoration-color: initial; float: none; display: inline !important;&quot;&gt;0..n&lt;/span&gt;" style="text;whiteSpace=wrap;html=1;" vertex="1" parent="1">
                    <mxGeometry x="425" y="680" width="30" height="20" as="geometry"/>
                </mxCell>
                <mxCell id="33" value="&lt;span style=&quot;color: rgb(240, 240, 240); font-family: Helvetica; font-size: 11px; font-style: normal; font-variant-ligatures: normal; font-variant-caps: normal; font-weight: 400; letter-spacing: normal; orphans: 2; text-align: left; text-indent: 0px; text-transform: none; widows: 2; word-spacing: 0px; -webkit-text-stroke-width: 0px; background-color: rgb(24, 20, 29); text-decoration-thickness: initial; text-decoration-style: initial; text-decoration-color: initial; float: none; display: inline !important;&quot;&gt;0..n&lt;/span&gt;" style="text;whiteSpace=wrap;html=1;" vertex="1" parent="1">
                    <mxGeometry x="340" y="730" width="30" height="20" as="geometry"/>
                </mxCell>
                <mxCell id="34" value="&lt;span style=&quot;color: rgb(240, 240, 240); font-family: Helvetica; font-size: 11px; font-style: normal; font-variant-ligatures: normal; font-variant-caps: normal; font-weight: 400; letter-spacing: normal; orphans: 2; text-align: left; text-indent: 0px; text-transform: none; widows: 2; word-spacing: 0px; -webkit-text-stroke-width: 0px; background-color: rgb(24, 20, 29); text-decoration-thickness: initial; text-decoration-style: initial; text-decoration-color: initial; float: none; display: inline !important;&quot;&gt;1&lt;/span&gt;" style="text;whiteSpace=wrap;html=1;" vertex="1" parent="1">
                    <mxGeometry x="300" y="680" width="30" height="20" as="geometry"/>
                </mxCell>
                <mxCell id="35" value="&lt;span style=&quot;color: rgb(240, 240, 240); font-family: Helvetica; font-size: 11px; font-style: normal; font-variant-ligatures: normal; font-variant-caps: normal; font-weight: 400; letter-spacing: normal; orphans: 2; text-align: left; text-indent: 0px; text-transform: none; widows: 2; word-spacing: 0px; -webkit-text-stroke-width: 0px; background-color: rgb(24, 20, 29); text-decoration-thickness: initial; text-decoration-style: initial; text-decoration-color: initial; float: none; display: inline !important;&quot;&gt;1&lt;/span&gt;" style="text;whiteSpace=wrap;html=1;" vertex="1" parent="1">
                    <mxGeometry x="480" y="730" width="30" height="20" as="geometry"/>
                </mxCell>
                <mxCell id="36" value="&lt;span style=&quot;color: rgb(240, 240, 240); font-family: Helvetica; font-size: 11px; font-style: normal; font-variant-ligatures: normal; font-variant-caps: normal; font-weight: 400; letter-spacing: normal; orphans: 2; text-align: left; text-indent: 0px; text-transform: none; widows: 2; word-spacing: 0px; -webkit-text-stroke-width: 0px; background-color: rgb(24, 20, 29); text-decoration-thickness: initial; text-decoration-style: initial; text-decoration-color: initial; float: none; display: inline !important;&quot;&gt;1&lt;/span&gt;" style="text;whiteSpace=wrap;html=1;" vertex="1" parent="1">
                    <mxGeometry x="590" y="680" width="30" height="20" as="geometry"/>
                </mxCell>
            </root>
        </mxGraphModel>
    </diagram>
</mxfile>